<svg xmlns="http://www.w3.org/2000/svg" version="1.1" xmlns:xlink="http://www.w3.org/1999/xlink" width="2000" height="174" viewBox="0 0 2000 174"><svg xml:space="preserve" width="2000" height="174" data-version="2" data-id="lg_zx8jcqPUrN7ZXSY5n5" viewBox="0 0 369 174" x="0" y="0"><rect width="100%" height="100%" fill="transparent"></rect><circle r="85.42" fill="#9781fa" transform="translate(88.83 87)"></circle><path fill="#9781fa" d="m194.655 159.638-1.31-11.83q6.71 0 9.12-2.63 2.41-2.62 2.41-10.22V32.328h13.29v106.87q0 10.07-5.41 15.25-5.4 5.19-15.03 5.19z"></path><rect width="24.82" height="127.31" x="-12.41" y="-63.66" fill="none" rx="0" ry="0" transform="translate(206.25 96.48)"></rect><path fill="#9781fa" d="M263.565 135.988q-9.63 0-16.64-4.9-7.01-4.89-10.73-13.35-3.73-8.47-3.73-18.98 0-10.52 3.73-18.98 3.72-8.47 10.73-13.36 7.01-4.89 16.64-4.89 9.49 0 16.5 4.89t10.66 13.36q3.65 8.46 3.65 18.98 0 10.51-3.65 18.98-3.65 8.46-10.66 13.35-7.01 4.9-16.5 4.9m0-11.25q8.47 0 13.14-6.86t4.67-19.12q0-12.27-4.67-19.06-4.67-6.79-13.14-6.79-8.76 0-13.43 6.79t-4.67 19.06q0 12.41 4.67 19.19 4.67 6.79 13.43 6.79"></path><rect width="61.91" height="74.46" x="-30.95" y="-37.23" fill="none" rx="0" ry="0" transform="translate(263.92 99.26)"></rect><path fill="#9781fa" d="M336.565 61.528q8.62 0 14.97 5.11 6.35 5.11 9.71 13.65 3.35 8.54 3.35 18.47 0 10.36-3.5 18.9t-9.86 13.43q-6.35 4.9-14.67 4.9-5.84 0-10.88-2.19-5.03-2.19-8.39-6.28l-.58 7.01h-11.54v-109.5h12.7v44.82q7.6-8.32 18.69-8.32m-2.19 63.21q7.74 0 12.48-7.52 4.75-7.51 4.75-18.46 0-11.25-4.67-18.55-4.67-7.3-12.56-7.3-7.88 0-12.77 6.65-4.89 6.64-4.89 19.2 0 12.99 4.89 19.49 4.89 6.49 12.77 6.49"></path><rect width="59.42" height="110.96" x="-29.71" y="-55.48" fill="none" rx="0" ry="0" transform="translate(335.38 81)"></rect><path fill="#fff" d="M96.005 120.788h-9.8l-4.6-50.6-16.9 36.1-16.9-36.1-4.7 50.6h-9.7l7.6-70h7.7l16 36.1 16-36.1h7.7z" paint-order="stroke"></path><rect width="62.6" height="70" x="-31.3" y="-35" fill="none" rx="0" ry="0" transform="translate(65.2 86.29)"></rect><path fill="#fff" d="M139.905 50.788h10.1l-20.6 39.7v30.3h-9.1v-30.3l-20.8-39.7h10.1l15.2 30.1z" paint-order="stroke"></path><rect width="50.5" height="70" x="-25.25" y="-35" fill="none" rx="0" ry="0" transform="translate(125.25 86.29)"></rect></svg></svg>